<?xml version="1.0" encoding="UTF-8" standalone="no"?>
<!-- Created with Inkscape (http://www.inkscape.org/) -->

<svg
   width="196mm"
   height="98mm"
   viewBox="0 0 196 98"
   version="1.1"
   id="svg527"
   inkscape:version="1.1.2 (0a00cf5339, 2022-02-04)"
   sodipodi:docname="LogoBOOKi.svg"
   xmlns:inkscape="http://www.inkscape.org/namespaces/inkscape"
   xmlns:sodipodi="http://sodipodi.sourceforge.net/DTD/sodipodi-0.dtd"
   xmlns="http://www.w3.org/2000/svg"
   xmlns:svg="http://www.w3.org/2000/svg">
  <sodipodi:namedview
     id="namedview529"
     pagecolor="#505050"
     bordercolor="#ffffff"
     borderopacity="1"
     inkscape:pageshadow="0"
     inkscape:pageopacity="0"
     inkscape:pagecheckerboard="1"
     inkscape:document-units="mm"
     showgrid="false"
     inkscape:zoom="0.56123737"
     inkscape:cx="318.04724"
     inkscape:cy="560.36895"
     inkscape:window-width="1600"
     inkscape:window-height="855"
     inkscape:window-x="0"
     inkscape:window-y="0"
     inkscape:window-maximized="1"
     inkscape:current-layer="layer1" />
  <defs
     id="defs524" />
  <g
     inkscape:label="Layer 1"
     inkscape:groupmode="layer"
     id="layer1">
    <g
       id="g117"
       transform="matrix(2.2899762,0,0,2.2899762,-40.354537,-19.637125)">
      <path
         style="fill:#d6e5fd;stroke-width:0.444444"
         d="m 24.740742,49.48148 c -0.162964,-0.16296 -0.296297,-0.619116 -0.296297,-1.013671 0,-0.394556 -0.590974,-0.940445 -1.313276,-1.21308 -2.601383,-0.981916 -2.15682,-4.488324 0.495206,-3.905841 l 1.262515,0.277295 -0.0068,-12.368647 c -0.0045,-8.149867 -0.153757,-12.141256 -0.437639,-11.70198 -0.236958,0.366666 -0.433895,1.216666 -0.437639,1.888888 -0.0088,1.584072 -1.230781,1.63083 -3.031073,0.115984 -1.545468,-1.300426 -1.933317,-2.772479 -1.193848,-4.53116 0.591442,-1.406625 3.482307,-4.140379 4.37833,-4.140379 0.315551,0 1.027558,-0.483079 1.582237,-1.073508 1.314362,-1.399073 2.981829,-1.802097 4.193499,-1.01356 0.524116,0.341087 2.252939,0.725106 3.841828,0.853376 4.159776,0.335816 6.453841,1.156514 8.659323,3.097857 2.456939,2.162683 3.571655,4.887698 3.177064,7.766573 -0.37772,2.755767 -2.14809,5.677301 -4.305399,7.104941 -0.964265,0.638121 -1.75321,1.254859 -1.75321,1.370528 0,0.11567 0.524236,0.622672 1.164969,1.126673 1.514228,1.191093 2.390586,3.345975 2.390586,5.878231 0,5.334208 -4.349624,9.749609 -10.167824,10.321591 -1.374364,0.135111 -3.038911,0.518027 -3.698994,0.85092 -1.253287,0.632067 -3.992531,0.819991 -4.503552,0.308969 z m 9.715038,-6.377375 c 1.517947,-0.938142 2.877554,-3.234435 2.877554,-4.860011 0,-2.496865 -1.9595,-4.243653 -5.111111,-4.556278 L 30.88889,33.555556 30.763674,38.777778 30.638458,44 h 1.183868 c 0.651126,0 1.836182,-0.403152 2.633454,-0.895895 z m 0.942859,-15.341101 c 3.77081,-2.209842 4.900395,-6.199014 2.44937,-8.65004 -1.354925,-1.354924 -4.282622,-2.362608 -6.215217,-2.139216 l -1.188347,0.137363 -0.125044,5.754273 c -0.06877,3.164851 -0.02925,6.003896 0.08782,6.308989 0.279655,0.72877 2.327721,0.149661 4.991418,-1.411369 z m 53.584728,18.678503 c -1.747422,-0.759218 -2.677191,-2.708655 -3.262249,-6.839927 -0.540325,-3.815356 -0.98244,-4.316064 -2.719098,-3.079454 -1.336365,0.951577 -1.3412,0.970603 -1.067805,4.20483 0.305618,3.615456 -0.05408,4.161933 -2.739462,4.161933 -2.486458,0 -2.514133,-0.165289 -2.683827,-16.028583 L 76.35518,14.301203 77.463918,13.574732 c 0.609804,-0.399559 1.810524,-0.840356 2.668275,-0.97955 2.400298,-0.389515 2.570636,0.309626 2.087022,8.566174 -0.227466,3.883476 -0.41164,8.060866 -0.409275,9.283088 l 0.0044,2.222223 1.758467,-1.944832 c 0.96716,-1.069657 1.99864,-2.746443 2.292178,-3.726191 0.414244,-1.382613 0.876302,-1.924503 2.064204,-2.42084 1.83136,-0.765191 3.436627,-0.459877 3.743058,0.71191 0.279725,1.06967 -0.938426,3.825753 -2.517871,5.69671 l -1.205391,1.427869 0.893929,1.238798 c 0.491662,0.681339 1.201235,2.59289 1.576831,4.247892 0.721565,3.179477 1.635151,4.968503 2.757076,5.399025 0.595115,0.228368 0.668689,-0.713618 0.595889,-7.629347 -0.04568,-4.339436 -0.0632,-8.150089 -0.03893,-8.468117 0.05326,-0.700159 2.700276,-1.866211 4.236271,-1.866211 0.61036,0 1.295089,0.35 1.521614,0.777778 0.461382,0.871287 -0.806574,17.294786 -1.406822,18.222222 -0.19776,0.305556 -0.733472,0.555556 -1.190476,0.555556 -0.457,0 -1.130138,0.299222 -1.495853,0.664942 -1.567663,1.567662 -4.057258,1.912151 -6.415187,0.887676 z M 49.533521,44.708178 C 47.815726,43.959953 46.00957,41.826798 45.316983,39.728237 44.40144,36.95411 44.97105,32.047256 46.531041,29.269849 c 1.8664,-3.322936 3.440667,-4.312141 6.441756,-4.047734 3.106951,0.273734 4.212742,1.03963 5.503485,3.811834 0.852662,1.831322 1.069488,3.023153 1.065173,5.85494 -0.0061,4.011604 -0.828262,6.342096 -2.929854,8.305059 -2.253426,2.104785 -4.579711,2.602452 -7.07808,1.51423 z m 4.385276,-5.298111 c 1.000547,-2.156872 1.299636,-4.125128 0.979991,-6.449219 -0.434018,-3.155691 -0.917733,-3.666727 -2.131516,-2.251902 -0.544222,0.634365 -1.3144,1.268459 -1.711506,1.409097 -1.626325,0.575974 -1.351027,7.309474 0.3528,8.629209 0.947969,0.734267 1.746675,0.308801 2.510231,-1.337185 z m 11.192316,5.49516 c -1.279476,-0.535123 -3.544427,-3.112455 -4.199929,-4.779191 -0.347107,-0.882576 -0.497649,-2.753093 -0.393458,-4.888888 0.187191,-3.837341 1.35296,-6.752691 3.53688,-8.845017 1.106893,-1.060471 1.554369,-1.183579 4.031902,-1.109238 1.532756,0.04599 3.217467,0.365788 3.743805,0.710657 2.524933,1.654401 4.11608,8.951346 2.828053,12.96937 -1.447137,4.514372 -6.074733,7.394636 -9.547253,5.942307 z m 4.539111,-5.977177 c 0.849609,-1.642963 0.944556,-6.734802 0.15316,-8.213541 l -0.54956,-1.02686 -1.206787,1.156176 C 67.383304,31.479721 66.615588,32 66.340997,32 c -0.759644,0 -1.159911,4.45071 -0.590457,6.565502 0.84684,3.144922 2.386826,3.288093 3.899684,0.362548 z M 94.428385,23.820991 c -0.606427,-0.443428 -0.852627,-1.162894 -0.852627,-2.491615 0,-3.380614 3.515809,-5.140724 6.142085,-3.074896 1.627577,1.280253 1.515417,2.823368 -0.340063,4.678853 -1.650751,1.650752 -3.461644,1.97553 -4.949395,0.887658 z"
         id="path131" />
      <path
         style="fill:#acccfd;stroke-width:0.444444"
         d="M 25.422223,49.244444 C 25.12889,48.951111 24.88889,48.440707 24.88889,48.110213 c 0,-0.330493 -0.601206,-0.81048 -1.336013,-1.066635 -1.331417,-0.464134 -2.161301,-2.059125 -1.569552,-3.016596 0.159076,-0.257391 0.927905,-0.418758 1.708508,-0.358594 l 1.419279,0.10939 0.118026,-12.837937 c 0.104144,-11.327992 0.04019,-12.773334 -0.543795,-12.288674 -0.364001,0.302094 -0.789371,1.229166 -0.945266,2.060159 -0.334087,1.780835 -1.019192,1.897191 -2.69307,0.457382 -0.931502,-0.801244 -1.224784,-1.452396 -1.224784,-2.719291 0,-1.379588 0.306262,-1.943074 1.782629,-3.279818 0.980445,-0.887724 2.455117,-2.014043 3.277047,-2.502932 0.82193,-0.488889 1.952875,-1.18607 2.513211,-1.549291 0.91234,-0.591397 1.155264,-0.579787 2.324861,0.111111 C 30.46929,11.671121 31.931662,12 33.150529,12 c 3.293183,0 7.023974,1.239226 9.112304,3.026758 2.16553,1.853613 3.074324,3.754913 3.060742,6.403411 -0.01679,3.272843 -1.390754,5.535587 -5.323574,8.767232 l -1.111111,0.913013 1.229109,0.931324 c 3.473068,2.631622 3.675366,8.184959 0.436024,11.969402 -1.863313,2.17686 -5.371459,3.978233 -7.759791,3.984518 -0.907617,0.0024 -2.665021,0.404342 -3.905342,0.893231 -2.643365,1.041915 -2.767567,1.054658 -3.466667,0.355555 z m 8.630473,-5.52146 c 2.920314,-1.38578 4.276408,-4.65425 3.099613,-7.470717 -0.762364,-1.824592 -2.771984,-2.918934 -5.360255,-2.918934 h -1.569831 v 5.259259 c 0,2.892593 0.133333,5.392593 0.296296,5.555556 0.502966,0.502968 1.94348,0.32967 3.534177,-0.425164 z m 1.147652,-15.440129 c 4.266515,-2.557559 5.58544,-6.308163 3.210742,-9.130331 -1.181549,-1.404192 -4.521196,-2.70808 -6.936201,-2.70808 h -1.252666 v 6.592593 c 0,3.625926 0.1047,6.697293 0.232668,6.82526 0.45754,0.457541 2.458182,-0.208337 4.745457,-1.579442 z m 53.875299,17.875123 c -1.397698,-0.678209 -2.294365,-2.532333 -2.88004,-5.955318 -0.839658,-4.907394 -1.439885,-5.496859 -3.748289,-3.681071 -1.177587,0.926293 -1.217014,1.084877 -0.958351,3.85483 0.315226,3.375685 -0.06278,4.068025 -2.221054,4.068025 -1.214231,0 -1.597529,-0.224599 -1.945578,-1.140044 -0.248311,-0.653112 -0.433444,-7.117005 -0.433444,-15.133789 V 14.176865 l 1.54128,-0.643988 c 2.031738,-0.848914 3.187324,-0.813856 3.540849,0.10742 0.158591,0.413275 0.06379,4.830414 -0.210658,9.815864 -0.274453,4.98545 -0.363147,9.197316 -0.197093,9.359703 0.490746,0.479922 4.242595,-3.956276 4.520302,-5.34483 0.470293,-2.351458 3.731916,-3.921056 4.992258,-2.402435 0.753996,0.908507 0.213027,2.461338 -1.770413,5.081919 -1.702796,2.249778 -2.113565,3.182815 -1.40124,3.182815 0.630244,0 1.766795,2.406837 2.098746,4.444445 C 90.521145,40.958772 92.409185,44 93.865771,44 c 0.08053,0 0.128734,-3.694909 0.107107,-8.210908 -0.02164,-4.516 0.07563,-8.38606 0.216124,-8.600132 0.788623,-1.201633 4.548921,-1.930139 5.127827,-0.993446 0.24332,0.393698 -0.951991,16.567654 -1.303373,17.636185 -0.09014,0.274101 -0.714253,0.636497 -1.386925,0.805328 -0.672675,0.168831 -1.7158,0.694564 -2.318057,1.168302 -1.184298,0.931569 -3.691534,1.100538 -5.232827,0.352649 z M 48.88889,43.910934 c -3.905271,-2.652243 -4.857066,-8.626168 -2.225898,-13.970827 1.635938,-3.323064 3.56708,-4.948381 5.067312,-4.26483 0.625177,0.284852 1.267297,0.299221 1.732689,0.03877 2.044666,-1.144252 5.116129,2.776317 5.866355,7.488105 0.380107,2.387263 -0.434862,6.332516 -1.688498,8.174009 -2.282586,3.352928 -5.973338,4.421853 -8.75196,2.534769 z m 5.260925,-4.244267 c 1.142871,-2.282423 1.445595,-4.668527 0.934329,-7.364427 -0.588231,-3.101722 -1.021907,-3.40774 -2.636769,-1.860603 -0.734943,0.704122 -1.342623,1.092803 -1.350396,0.863737 -0.0078,-0.229067 -0.307778,-0.02826 -0.666667,0.446239 -0.88984,1.17647 -0.873293,6.532292 0.02556,8.270458 1.007004,1.947335 2.618551,1.792285 3.693956,-0.355404 z m 10.937,4.79604 c -1.70036,-0.688636 -3.656182,-3.423645 -4.204245,-5.879186 -0.975142,-4.369039 0.919663,-10.14257 4.104592,-12.506817 0.977364,-0.725524 1.409146,-0.806732 2.25068,-0.423305 0.643933,0.293396 1.31536,0.321075 1.75948,0.07253 1.643289,-0.919631 4.232698,1.555897 5.267747,5.036076 0.674475,2.267809 0.531235,7.178508 -0.264978,9.084108 -1.65184,3.953412 -5.556783,5.975961 -8.913276,4.616592 z m 4.416653,-4.596367 c 1.137601,-1.529245 1.572418,-7.138755 0.713996,-9.21117 -0.635387,-1.533956 -0.758956,-1.572885 -1.852196,-0.583517 -0.448706,0.406076 -1.262702,0.96111 -1.80888,1.233408 -0.741768,0.369812 -1.075622,1.054563 -1.319373,2.706125 -0.847836,5.74457 1.723569,9.273488 4.266453,5.855154 z M 94.513331,23.187226 c -2.55572,-2.824036 1.762787,-6.945322 4.943334,-4.71758 1.380365,0.966843 1.255445,2.664402 -0.311365,4.231209 -1.51248,1.51248 -3.513231,1.722565 -4.631969,0.486371 z"
         id="path129" />
      <path
         style="fill:#8bb8fc;stroke-width:0.444444"
         d="M 25.163162,48.271373 C 25.002731,47.632164 24.457878,47.099298 23.794476,46.932796 22.61958,46.637916 21.55929,45.157529 22.005677,44.435259 22.15363,44.195867 22.932714,44 23.736976,44 h 1.462293 l 0.286955,-4.333333 c 0.157826,-2.383334 0.28799,-8.183334 0.289255,-12.888889 0.0019,-7.218356 -0.09945,-8.555556 -0.64873,-8.555556 -0.770172,0 -1.571193,1.344616 -1.571193,2.637449 0,1.25036 -1.365461,1.192065 -2.589194,-0.110538 -0.531499,-0.565755 -0.966361,-1.558796 -0.966361,-2.206757 0,-1.441981 2.350788,-4.233529 4.224301,-5.016332 0.742116,-0.310076 1.726238,-0.980285 2.186939,-1.489353 0.883145,-0.975865 2.415419,-1.193658 3.705902,-0.526747 0.42446,0.219358 2.412265,0.610456 4.417344,0.869107 4.059514,0.523669 6.392449,1.525234 8.446579,3.626247 3.568286,3.649729 2.479246,9.933227 -2.318803,13.378925 -1.097578,0.788221 -1.99559,1.549224 -1.995582,1.691119 7e-6,0.141895 0.682772,0.802766 1.517255,1.468601 2.814674,2.245831 3.214532,6.481963 0.972902,10.307015 -1.44417,2.464291 -4.104512,4.114966 -7.66252,4.754406 -1.432986,0.257534 -3.505428,0.752672 -4.605428,1.100303 -2.759104,0.871964 -3.41713,0.795257 -3.725728,-0.434294 z M 33.45872,44.27696 c 3.356524,-1.43616 5.139546,-5.223145 3.885106,-8.25163 -0.917638,-2.215375 -6.656365,-4.260869 -7.240795,-2.580886 -0.218636,0.628484 0.0937,10.034377 0.361578,10.888889 0.226464,0.722396 1.217623,0.703734 2.994111,-0.05637 z m 0.550593,-15.10258 c 2.885019,-1.343467 4.942249,-3.42761 5.621626,-5.695168 0.4754,-1.586744 0.436022,-2.004479 -0.322486,-3.421105 -1.191525,-2.225349 -4.130515,-3.684016 -7.08623,-3.517005 l -2.222222,0.125565 -0.124238,6.20082 c -0.06833,3.410451 -0.02461,6.460451 0.09716,6.777777 0.323256,0.842393 1.514674,0.703402 4.036387,-0.470884 z m 54.568036,16.379798 c -1.102876,-0.772485 -1.701587,-2.416456 -2.322191,-6.376394 -0.677031,-4.319996 -1.506489,-4.91644 -3.955685,-2.844451 l -1.444729,1.222223 0.392991,2.81456 c 0.311818,2.233219 0.262885,2.944662 -0.236897,3.444444 -0.778796,0.7788 -2.529258,0.82052 -3.118405,0.07433 -0.254187,-0.321939 -0.550875,-6.49595 -0.705551,-14.682205 -0.257702,-13.639021 -0.236769,-14.156795 0.606436,-15 0.535466,-0.535466 1.475169,-0.873351 2.428906,-0.873351 h 1.555556 l -0.03858,3.888889 c -0.0212,2.138889 -0.189738,6.488889 -0.374515,9.666667 -0.184774,3.177778 -0.191974,5.943225 -0.016,6.145438 0.538888,0.619244 3.421586,-2.283425 4.467351,-4.498303 1.408093,-2.982244 2.102382,-3.647135 3.808404,-3.647135 1.202383,0 1.486672,0.174199 1.486672,0.91096 0,1.206295 -1.154512,3.408945 -2.741827,5.231025 l -1.285231,1.475319 1.106955,1.315542 c 0.608827,0.723548 1.231756,2.059655 1.384289,2.969126 0.525676,3.134323 1.200836,4.76895 2.564609,6.209139 0.752289,0.794444 1.578565,1.444649 1.836169,1.444898 0.317098,3.06e-4 0.421644,-2.78795 0.323698,-8.633069 -0.161667,-9.647632 -0.232182,-9.42723 3.101302,-9.693145 L 98.888891,26 l -0.01978,2.888889 c -0.03702,5.404423 -0.762729,14.442483 -1.204449,15 -0.242089,0.305555 -0.967564,0.555555 -1.612169,0.555555 -0.690666,0 -1.399986,0.365063 -1.727124,0.888889 -0.689125,1.103463 -4.29036,1.241827 -5.748018,0.220845 z M 47.990423,42.761665 c -2.01988,-2.01988 -2.853555,-4.688313 -2.510555,-8.035807 0.268,-2.615561 1.99012,-6.552882 3.44004,-7.86504 1.179684,-1.067598 5.514871,-1.299792 6.963267,-0.372955 1.577022,1.009149 2.894249,4.085088 3.121795,7.289915 0.287863,4.054367 -0.47756,6.478439 -2.769262,8.770139 -1.750675,1.750678 -2.075942,1.896527 -4.229516,1.896527 -2.107275,0 -2.495795,-0.162805 -4.015769,-1.682779 z m 5.648316,-1.983887 c 1.24616,-1.377282 1.916818,-3.593196 1.916818,-6.333334 0,-4.461073 -1.448204,-6.305266 -3.323849,-4.232702 -0.437222,0.483124 -0.945556,0.785326 -1.129636,0.67156 -1.596817,-0.986888 -2.253928,7.409477 -0.758493,9.6918 0.959702,1.464686 2.090373,1.534231 3.29516,0.202676 z m 10.954147,3.121005 c -4.521227,-2.655661 -4.96816,-11.370857 -0.830987,-16.204215 1.556272,-1.818153 1.5662,-1.82197 4.514712,-1.735636 2.687293,0.07869 3.050858,0.20526 4.013018,1.397129 3.275693,4.057757 3.027271,11.880355 -0.485409,15.284979 -1.292209,1.252458 -1.948294,1.532385 -3.901067,1.664439 -1.38352,0.09356 -2.742934,-0.07346 -3.310267,-0.406696 z m 4.4916,-2.980474 c 1.798076,-1.986848 2.479636,-6.158006 1.552031,-9.498433 -0.585426,-2.108192 -1.484071,-2.489084 -2.848449,-1.207318 -0.580577,0.545424 -1.254284,0.868885 -1.497124,0.718802 -0.753164,-0.465482 -1.508729,2.797352 -1.323045,5.713456 0.279512,4.389636 2.203721,6.387188 4.116587,4.273493 z M 95.000003,23.519956 c -0.524547,-0.30552 -0.777778,-1.002211 -0.777778,-2.139824 0,-2.991004 3.079729,-4.563027 5.059951,-2.582808 1.349004,1.349 1.144224,2.542644 -0.702822,4.096833 -1.408031,1.184783 -2.339907,1.347708 -3.579351,0.625799 z m 2.555555,-2.186623 c 0.151076,-0.244444 0.07468,-0.444444 -0.169764,-0.444444 -0.244445,0 -0.568049,0.2 -0.719125,0.444444 -0.151075,0.244445 -0.07468,0.444445 0.169765,0.444445 0.244444,0 0.568049,-0.2 0.719124,-0.444445 z"
         id="path127" />
      <path
         style="fill:#70a8fc;stroke-width:0.444444"
         d="m 25.34706,48.258324 c -0.224794,-0.591253 -0.969844,-1.343128 -1.655666,-1.670831 -0.743067,-0.355053 -1.307339,-1.021124 -1.396396,-1.648311 -0.13884,-0.977791 -0.03998,-1.031955 1.392878,-0.763149 1.188573,0.222978 1.605122,0.125695 1.816114,-0.42414 0.421714,-1.09897 0.324248,-25.974115 -0.101772,-25.974115 -0.631121,0 -1.710879,1.486538 -2.017659,2.777778 -0.358219,1.507748 -0.886944,1.538018 -2.29365,0.131313 -2.439079,-2.439079 -0.984302,-4.554897 6.274127,-9.125049 0.934008,-0.588083 1.184382,-0.582361 2.28636,0.05224 0.692965,0.399064 2.77896,0.823205 4.740627,0.963901 6.101607,0.437623 9.963044,3.356123 10.39552,7.857004 0.373929,3.891553 -1.413071,6.995049 -5.680421,9.865223 l -1.107121,0.744638 1.017745,0.737437 c 2.98536,2.163132 3.939337,4.597599 3.183212,8.123285 -0.908366,4.235567 -4.657433,7.142567 -10.15773,7.876238 -1.320669,0.17616 -3.064245,0.597325 -3.874614,0.935916 -2.009529,0.839635 -2.34866,0.784422 -2.821554,-0.459383 z m 10.149856,-5.040889 c 4.634877,-3.72559 2.649389,-10.041311 -3.171314,-10.087764 L 30.000001,33.111111 29.870724,38 c -0.0711,2.688889 -0.01102,5.363871 0.133512,5.944404 0.236521,0.950009 0.443497,1.031276 2.070636,0.813032 1.050403,-0.140889 2.484156,-0.786112 3.422044,-1.540001 z M 33.65702,29.541804 c 3.858869,-1.612338 6.338474,-4.538359 6.34132,-7.48298 0.0024,-2.547267 -2.455094,-4.878805 -5.895282,-5.592985 -4.299103,-0.892491 -4.085524,-1.234282 -4.225454,6.762013 l -0.122397,6.99437 h 1.136672 c 0.625169,0 1.869483,-0.306188 2.765141,-0.680418 z m 55.10176,15.784578 c -1.217818,-0.957933 -1.860769,-2.563895 -2.310373,-5.770826 -0.388974,-2.774442 -1.10076,-4.444445 -1.894311,-4.444445 -0.369267,0 -1.371583,0.432739 -2.227365,0.961642 l -1.555973,0.961643 0.276969,3.2765 c 0.262822,3.109196 0.226124,3.2954 -0.718716,3.646624 -1.078596,0.400947 -2.137338,0.165014 -2.655538,-0.591768 C 77.493882,43.103477 77.343882,36.563378 77.34014,28.832198 77.33264,13.354015 77.26033,13.752716 80.098855,13.622421 l 1.456703,-0.06686 v 2.888888 c 0,1.588889 -0.158067,6.038889 -0.351263,9.888889 -0.29984,5.975232 -0.257071,7 0.292147,7 0.968076,0 4.6184,-4.277101 4.953867,-5.80447 0.343164,-1.562418 1.951933,-2.77042 3.412884,-2.562691 0.81008,0.115184 1.008427,0.400355 0.943538,1.356568 -0.06985,1.029305 -0.786071,2.258339 -3.441418,5.905444 -0.28116,0.38617 -0.05112,0.995956 0.722592,1.915463 0.679644,0.807709 1.263622,2.206261 1.455484,3.485681 0.426671,2.845248 1.299813,4.517723 3.2684,6.260508 1.355102,1.199671 1.519325,1.519631 0.965991,1.882084 -1.14004,0.746769 -3.803849,0.510302 -5.019,-0.445538 z M 49.01793,43.597349 c -4.538155,-2.849833 -4.475889,-12.057719 0.111605,-16.504093 1.309933,-1.269636 1.655542,-1.404207 2.554471,-0.994628 0.704751,0.321105 1.296867,0.329675 1.838422,0.0266 1.156267,-0.647077 2.89756,0.766067 4.255351,3.453422 2.260263,4.473534 1.149818,11.115606 -2.28256,13.653068 -1.749831,1.293602 -4.731538,1.461908 -6.477289,0.365626 z m 5.294169,-3.417036 c 1.691942,-2.908521 1.782062,-9.165518 0.155436,-10.792144 -0.598951,-0.598953 -0.783471,-0.566185 -1.70924,0.303531 -0.570791,0.536232 -1.379867,0.974967 -1.797938,0.974967 -1.071733,0 -1.627293,1.794889 -1.62536,5.251155 0.0022,3.776284 1.148404,5.993099 2.987391,5.777325 0.775902,-0.09104 1.46796,-0.617924 1.989711,-1.514834 z m 11.021236,3.974827 c -2.270129,-0.905909 -4.444445,-4.887654 -4.444445,-8.13895 0,-4.95486 4.306401,-11.568388 6.400885,-9.83012 0.503542,0.417903 0.876529,0.42287 1.626209,0.02165 0.800405,-0.428364 1.17956,-0.370665 2.13952,0.32559 4.409236,3.197998 4.394925,13.487931 -0.02311,16.633865 -1.335587,0.951021 -4.442093,1.489554 -5.699036,0.987961 z m 4.777778,-4.582647 c 1.187809,-2.355499 1.358649,-6.742672 0.356013,-9.142324 -0.745955,-1.785317 -1.050529,-1.862083 -2.5884,-0.652391 -0.62152,0.488889 -1.439431,0.888889 -1.817578,0.888889 -0.700333,0 -1.087009,1.375306 -1.249586,4.444444 -0.159218,3.005687 0.08598,4.33557 1.017782,5.520164 1.438178,1.828348 3.023564,1.43632 4.281769,-1.058782 z m 24.695489,4.316396 c -0.196328,-0.305556 -0.380253,-4.113742 -0.40872,-8.462636 -0.04934,-7.538745 -0.0086,-7.937288 0.874076,-8.555556 1.042413,-0.730135 3.20708,-0.867184 3.602085,-0.228053 0.142911,0.231232 -0.05468,4.081232 -0.43908,8.555556 -0.710258,8.267168 -0.99784,9.246244 -2.715898,9.246244 -0.30552,0 -0.716129,-0.25 -0.912463,-0.555555 z M 94.755558,23.022222 C 93.9327,22.199364 94.123682,20.098541 95.111114,19.111111 96.750105,17.472118 100,18.234555 100,20.258061 c 0,2.346896 -3.707575,4.301028 -5.244442,2.764161 z m 2.953556,-1.888015 c 0.09822,-0.506674 -0.06194,-0.720375 -0.444445,-0.593008 -0.328898,0.10952 -0.667102,0.555587 -0.751555,0.991261 -0.09822,0.506673 0.06194,0.720375 0.444444,0.593008 0.328898,-0.10952 0.667102,-0.555587 0.751556,-0.991261 z"
         id="path125" />
      <path
         style="fill:#4f94fb;stroke-width:0.444444"
         d="m 25.333334,47.777778 c -0.232344,-0.611111 -0.713108,-1.111111 -1.068365,-1.111111 -0.720635,0 -2.042746,-1.171165 -2.042746,-1.809525 0,-0.226982 0.688196,-0.412698 1.529326,-0.412698 0.841129,0 1.62145,-0.15 1.734047,-0.333333 0.365576,-0.595239 0.514139,-25.81508 0.15419,-26.17503 -0.586108,-0.586108 -1.837592,0.503017 -2.287251,1.990518 -0.233883,0.773704 -0.652886,1.406734 -0.931116,1.406734 -0.915948,0 -1.976974,-1.601101 -1.976974,-2.983279 0,-1.442324 1.862285,-3.431392 4.905015,-5.238943 0.822968,-0.488889 1.903295,-1.130907 2.400728,-1.426707 0.715254,-0.425328 1.091605,-0.416548 1.79934,0.04197 0.492205,0.318885 2.294917,0.700259 4.006028,0.847499 4.482351,0.385703 6.976773,1.384341 9.034845,3.617086 1.871742,2.030602 2.614356,4.470249 2.088916,6.862564 -0.504618,2.297504 -2.732499,5.254385 -4.928691,6.541439 l -2.096126,1.228412 1.798859,1.588312 c 0.989373,0.873571 2.017111,2.025163 2.283862,2.559093 0.668817,1.338705 0.60806,4.764478 -0.115064,6.487938 -1.411149,3.363261 -5.768092,6.077386 -9.81244,6.112586 -0.995344,0.0087 -2.309716,0.301573 -2.920827,0.650915 -1.743159,0.99648 -3.070814,0.830525 -3.555556,-0.444444 z m 8.666667,-3.346164 c 1.193822,-0.439337 3.345061,-2.632683 3.830025,-3.904992 1.522421,-3.994089 -1.039916,-7.50357 -5.655363,-7.745816 l -2.174662,-0.114139 -0.124757,5.715797 c -0.08322,3.812921 0.04468,5.919953 0.384188,6.329038 0.494951,0.596378 1.5801,0.515182 3.740569,-0.279888 z m 0.745301,-15.138397 c 5.573476,-2.843375 7.188141,-8.597251 3.193872,-11.381391 -2.74254,-1.911642 -7.785735,-2.642954 -8.336067,-1.20881 -0.359716,0.937404 -0.347255,12.355703 0.01451,13.298453 0.348042,0.906983 2.560598,0.601377 5.127683,-0.708252 z m 54.56214,16.275001 c -1.453031,-0.790302 -2.10876,-2.257685 -2.619026,-5.860801 -0.412134,-2.910199 -1.394147,-5.04075 -2.323374,-5.04075 -0.276849,0 -1.189124,0.523058 -2.02728,1.162352 -1.506467,1.149035 -1.522311,1.197245 -1.383227,4.207939 0.153863,3.330534 -0.235173,4.125575 -1.903271,3.88956 C 78.030473,43.782089 77.992086,43.62318 77.726931,38.444444 77.57674,35.511111 77.42674,28.950906 77.393598,23.86621 l -0.06026,-9.2449 1.61852,-0.676262 c 2.559903,-1.069594 2.744165,-0.560389 2.351916,6.499396 -0.5276,9.49592 -0.493631,13.333334 0.118027,13.333334 0.900844,0 4.839,-4.526204 5.107875,-5.870586 0.429565,-2.147808 3.384272,-3.894368 3.976654,-2.350643 0.434667,1.132721 -0.179102,2.574118 -2.062351,4.843305 -1.793049,2.160498 -1.800591,2.184976 -0.958938,3.111111 1.205875,1.326913 1.683324,2.429518 2.028235,4.683926 0.376632,2.461763 1.824605,5.093962 3.210076,5.835443 1.329267,0.711399 1.353529,1.563617 0.05443,1.911759 -1.471324,0.394303 -2.202898,0.315485 -3.470338,-0.373875 z m -39.34369,-1.554375 c -1.310431,-0.530124 -3.126524,-2.817023 -3.759022,-4.733517 -0.784533,-2.377159 -0.314191,-6.655621 1.021165,-9.288986 1.626431,-3.207384 2.299777,-3.650803 5.564689,-3.664517 2.619182,-0.011 2.854266,0.07414 3.827506,1.386284 3.057298,4.121894 2.71376,11.710597 -0.670569,14.812843 -1.863275,1.707973 -4.07828,2.258743 -5.983769,1.487893 z m 3.985054,-3.145163 c 2.052293,-2.439015 2.58704,-7.188884 1.211102,-10.757569 -0.523369,-1.357433 -1.828382,-1.624424 -2.715462,-0.555555 -0.304307,0.366666 -0.92176,0.666666 -1.372116,0.666666 -2.512058,0 -2.810902,8.70587 -0.382218,11.134554 1.197143,1.197146 1.933454,1.08686 3.258694,-0.488096 z m 11.606751,3.149326 c -1.246533,-0.519002 -3.188066,-2.672085 -3.749502,-4.15805 -0.601107,-1.590957 -0.605347,-5.808999 -0.008,-7.959842 0.252867,-0.910493 1.112098,-2.510493 1.9094,-3.555556 1.380022,-1.808853 1.565947,-1.90264 3.871098,-1.952724 3.450444,-0.07497 3.837542,0.10079 5.148387,2.337578 1.382671,2.359345 1.88332,6.868947 1.08864,9.805935 -1.11488,4.120386 -5.130378,6.785706 -8.260023,5.482659 z m 3.49168,-2.713833 c 2.297236,-1.807006 3.113685,-7.847153 1.530409,-11.322068 -0.560653,-1.230504 -1.747435,-1.426893 -2.577644,-0.426549 -0.304307,0.366666 -1.012222,0.666666 -1.573147,0.666666 -0.86532,0 -1.092791,0.340054 -1.501138,2.244098 -0.8964,4.179777 -0.323582,7.860012 1.412671,9.076132 1.237512,0.866787 1.312356,0.860203 2.708849,-0.238279 z m 25.828481,2.155095 C 94.749029,43.129124 94.700167,39.27306 94.767131,34.890236 l 0.12176,-7.968769 1.716916,-0.405657 c 1.129578,-0.266886 1.813756,-0.249209 2,0.05167 0.155698,0.251532 -0.01724,4.226747 -0.384333,8.833812 l -0.667418,8.376482 -1.223996,0.140876 c -0.72732,0.08371 -1.317471,-0.102702 -1.454342,-0.459386 z m 0.04492,-20.602125 c -1.004018,-1.004017 -0.861604,-2.28991 0.392498,-3.544012 1.261244,-1.261247 2.307044,-1.374063 3.699084,-0.39904 1.3242,0.927505 1.24415,1.786805 -0.311364,3.342319 -1.44684,1.446842 -2.730169,1.650782 -3.780218,0.600733 z m 2.866058,-1.312328 c 0.309209,-0.372574 0.424102,-0.8155 0.255324,-0.98428 -0.370706,-0.370706 -1.697915,0.407155 -1.941489,1.137884 -0.253195,0.759582 1.024916,0.64315 1.686165,-0.153604 z"
         id="path123" />
      <path
         style="fill:#3684fb;stroke-width:0.444444"
         d="m 25.777778,48.207231 c 0,-0.374907 -0.7,-1.094662 -1.555555,-1.599453 -2.003991,-1.182382 -2.067146,-2.207102 -0.126585,-2.053916 1.261972,0.09962 1.46359,-0.04302 1.725194,-1.220529 0.521057,-2.345341 0.45297,-25.471218 -0.07596,-25.798112 -0.633629,-0.391604 -2.633765,1.519115 -2.633765,2.516022 0,1.223845 -0.76852,1.40246 -1.761567,0.409413 -1.819288,-1.819288 -0.632651,-4.563518 2.710908,-6.269274 0.964813,-0.492211 2.145908,-1.286631 2.624655,-1.765378 0.904058,-0.904058 2.417328,-1.159168 2.83804,-0.478442 0.13325,0.215603 1.595054,0.529345 3.248452,0.697203 5.888816,0.597851 9.100291,2.030414 10.799645,4.817467 1.157614,1.89856 1.16253,5.561605 0.0105,7.819776 -0.942132,1.846732 -3.433483,4.247754 -4.88587,4.708724 -1.333253,0.423157 -1.139313,1.067975 0.827578,2.75156 3.086339,2.641792 3.466256,6.784659 0.941762,10.269621 -1.750881,2.41702 -3.954363,3.655616 -7.473319,4.200811 -1.64554,0.254943 -3.622117,0.736378 -4.392393,1.069849 -1.83438,0.794151 -2.821723,0.767791 -2.821723,-0.07534 z m 8.653525,-3.887977 c 2.481929,-1.405718 3.79092,-3.513001 3.79092,-6.102821 0,-3.505741 -2.608594,-5.771989 -6.643924,-5.771989 -1.54372,0 -1.822051,0.15326 -2.069608,1.139604 -0.28979,1.154618 0.184553,10.802586 0.561267,11.415952 0.399874,0.651076 2.622374,0.304173 4.361345,-0.680746 z m -0.402246,-14.49277 c 5.135992,-2.33276 7.660913,-6.914164 5.668986,-10.286228 -1.426337,-2.414595 -7.414696,-4.643336 -9.49076,-3.53226 -0.810501,0.433767 -0.873949,0.961337 -0.873949,7.2669 0,3.739548 0.133333,6.932512 0.296297,7.095474 0.5393,0.539302 2.566319,0.288708 4.399426,-0.543886 z m 54.669808,14.912783 c -0.962032,-0.962032 -2.032196,-4.417082 -2.032196,-6.560992 0,-1.359265 -1.268791,-3.511608 -2.070067,-3.511608 -1.024626,0 -3.567778,1.660941 -3.910449,2.553929 -0.160013,0.416991 -0.15872,1.992757 0.0027,3.501704 0.275027,2.568173 0.230818,2.76353 -0.691613,3.056299 -2.082703,0.661023 -2.167894,0.09984 -2.254841,-14.853118 -0.07588,-13.049325 -0.02818,-14.002171 0.728623,-14.555555 0.445604,-0.325682 1.297426,-0.592148 1.893151,-0.592148 h 1.083138 l -0.292409,6.333333 c -0.160827,3.483333 -0.411982,7.879818 -0.558125,9.769966 -0.23544,3.045119 -0.17444,3.471658 0.53548,3.744079 1.04412,0.400666 5.324405,-4.101528 5.752529,-6.050764 0.315587,-1.43686 1.343258,-2.241059 2.863809,-2.241059 1.705609,0 1.005427,1.709183 -2.827693,6.902537 -0.280156,0.379571 -0.04404,0.996704 0.736107,1.923837 0.631715,0.750751 1.287217,2.221942 1.456671,3.269314 0.466102,2.880935 1.75032,5.472755 3.267467,6.59443 1.683386,1.244585 1.430017,1.754327 -0.871987,1.754327 -1.264245,0 -2.069227,-0.297476 -2.810262,-1.038511 z M 48.212863,42.465041 c -2.677586,-2.839069 -3.037315,-7.932773 -0.864608,-12.242819 1.472493,-2.921024 3.038764,-4.261406 4.311515,-3.689712 0.684551,0.307485 1.329711,0.306155 2.015254,-0.0041 2.467529,-1.116919 5.329102,4.444934 4.873275,9.471868 -0.451013,4.973874 -3.0724,7.994814 -6.940262,7.998114 -1.646107,0.0014 -2.171573,-0.235902 -3.395174,-1.533298 z m 5.951801,-1.3817 c 1.425369,-1.812065 1.941133,-4.023333 1.76268,-7.557245 -0.222489,-4.40594 -0.816067,-5.0484 -3.793116,-4.10548 -2.505107,0.793442 -3.179329,2.095111 -3.220253,6.217117 -0.05379,5.417548 2.879657,8.459888 5.250689,5.445608 z m 9.614484,1.451359 c -3.469813,-3.469813 -3.141178,-10.627765 0.674823,-14.69814 1.529893,-1.631874 1.822071,-1.77508 2.6216,-1.284925 0.692013,0.424241 1.160271,0.432963 2.027631,0.03777 3.604342,-1.642248 6.404471,8.0282 3.911844,13.509854 -1.171284,2.57583 -3.148849,3.896771 -5.837266,3.899082 -1.595427,0.0014 -2.189436,-0.254442 -3.398632,-1.463639 z m 5.749783,-1.171946 c 1.917764,-2.119103 2.649071,-7.901586 1.38264,-10.932585 -0.693396,-1.659521 -1.68332,-1.952455 -3.473156,-1.027757 -0.546684,0.282437 -1.289422,0.651365 -1.650529,0.81984 -0.361107,0.168474 -0.791169,0.787389 -0.955698,1.375366 -0.45368,1.621348 -0.441031,6.871027 0.01947,8.082258 0.950053,2.498832 3.204693,3.31005 4.677262,1.682878 z M 94.946798,43 c -0.147396,-0.55 -0.270724,-4.242963 -0.274062,-8.206585 -0.0056,-6.673485 0.05752,-7.240619 0.853604,-7.666667 0.472818,-0.253044 1.400596,-0.460081 2.061729,-0.460081 h 1.202058 l -0.279116,2.777777 c -0.153511,1.527778 -0.408626,5.077778 -0.566924,7.888889 -0.158293,2.811111 -0.467507,5.461111 -0.687138,5.888889 C 96.686536,44.333216 95.267505,44.196714 94.946798,43 Z m 0.01618,-20.185185 c -0.562591,-0.562589 -0.294089,-2.753531 0.425649,-3.473269 0.466973,-0.466972 1.291049,-0.674393 2.333333,-0.587302 1.377751,0.115123 1.6314,0.307952 1.749422,1.329944 0.177418,1.536445 -1.276582,3.026923 -2.952857,3.026923 -0.692596,0 -1.392596,-0.133333 -1.555556,-0.296296 z m 3.145627,-1.364909 c 0.589706,-0.889636 0.582991,-1.023798 -0.06367,-1.271945 -0.926365,-0.355474 -2.044933,0.567216 -2.044933,1.686825 0,1.142799 1.237457,0.899321 2.108591,-0.41488 z"
         id="path121" />
      <path
         style="fill:#0969fb;stroke-width:0.444444"
         d="m 25.777778,47.564022 c 0,-0.564538 -0.392111,-0.978835 -1.09288,-1.154715 -0.601085,-0.150863 -1.325574,-0.554676 -1.609976,-0.897356 -0.427102,-0.514627 -0.241468,-0.623062 1.066651,-0.623062 0.871061,0 1.674462,-0.15 1.785338,-0.333333 0.110875,-0.183334 0.272679,-6.273196 0.359563,-13.533029 0.177865,-14.862009 0.0553,-15.544846 -2.316191,-12.904404 -0.716989,0.798301 -1.303616,1.748301 -1.303616,2.111111 0,0.79725 -0.520664,0.850102 -1.244444,0.126322 -1.3884,-1.3884 0.36389,-5.229715 2.708409,-5.937288 0.539264,-0.162749 1.48048,-0.74412 2.091591,-1.291936 1.48398,-1.330277 2.499855,-1.640628 3.080432,-0.941075 0.275173,0.331563 1.942676,0.688835 3.921385,0.840181 4.694629,0.359077 6.674848,1.085295 8.837687,3.241101 2.130107,2.123179 2.727999,4.356206 1.94497,7.264151 -0.579236,2.151118 -2.834676,4.8264 -5.095386,6.043873 -1.980306,1.066465 -1.986194,1.708493 -0.0273,2.976907 2.843936,1.841495 3.73948,5.834841 2.048135,9.132902 -1.6065,3.132619 -4.431282,4.910366 -8.426594,5.303192 -1.378051,0.135494 -3.045615,0.51872 -3.705699,0.851614 -1.769778,0.892542 -3.022073,0.778524 -3.022073,-0.275156 z m 9.43365,-3.387897 c 0.91073,-0.584837 1.991181,-1.575084 2.401003,-2.200551 0.974505,-1.487283 1.254748,-5.000922 0.510987,-6.406678 -0.826214,-1.561598 -3.113453,-2.972043 -5.36781,-3.310105 -3.423841,-0.513436 -3.422274,-0.516352 -3.422274,6.366537 0,4.159182 0.169763,6.255548 0.53625,6.622032 0.745775,0.745778 3.314494,0.230653 5.341844,-1.071235 z M 34.567914,29.756964 c 6.315027,-3.155656 7.954912,-8.514488 3.70094,-12.093969 -2.271266,-1.911145 -7.567261,-2.853476 -8.846631,-1.574106 -0.745559,0.745559 -0.745559,13.74333 0,14.488889 0.851557,0.851557 2.243224,0.629566 5.145691,-0.820814 z M 89.914802,45.329067 C 88.426549,44.729596 87.680971,43.201712 87.143545,39.650056 86.3459,34.378713 85.216722,33.404424 82.210607,35.393776 l -1.837689,1.216125 0.140297,3.361716 c 0.138632,3.32183 0.127192,3.361716 -0.964235,3.361716 -1.09988,0 -1.105685,-0.02247 -1.377605,-5.333333 -0.150191,-2.933333 -0.300191,-9.258844 -0.333333,-14.056691 -0.06448,-9.333316 -0.0094,-9.579386 2.197729,-9.824088 0.802902,-0.08902 1.058671,0.08401 1.009547,0.68296 -0.03618,0.441199 -0.211667,4.991199 -0.389951,10.111111 -0.318992,9.160649 -0.309805,9.30893 0.576755,9.30893 1.187707,0 5.211298,-4.421315 5.887107,-6.469039 0.475804,-1.441696 2.372507,-2.854042 2.995787,-2.23076 0.44384,0.443837 -0.363307,2.377263 -1.769027,4.237514 -0.801404,1.060531 -1.651484,2.191123 -1.889071,2.512428 -0.307267,0.415539 -0.09081,0.941704 0.749769,1.822579 0.81124,0.850126 1.414,2.263088 1.922533,4.506724 0.608911,2.686517 1.042929,3.57048 2.438085,4.965636 1.307951,1.307949 1.543915,1.756163 1.028649,1.953887 -0.868272,0.333187 -1.487103,0.288845 -2.681152,-0.192124 z M 49.41421,43.120507 c -0.899893,-0.562628 -1.83052,-1.726435 -2.387631,-2.985877 -1.645418,-3.719736 -0.514773,-9.805632 2.293556,-12.345479 1.28288,-1.160233 5.489551,-1.360419 6.538804,-0.311167 2.480903,2.480905 3.185387,8.947004 1.363285,12.512935 -1.815987,3.553968 -5.053632,4.851672 -7.808014,3.129588 z m 4.807445,-1.786565 c 3.059435,-3.275135 2.740266,-12.889498 -0.427894,-12.889498 -0.468826,0 -0.976017,0.2 -1.127093,0.444445 -0.151076,0.244444 -0.738391,0.444444 -1.305142,0.444444 -1.45616,0 -1.984836,0.835041 -2.546138,4.021606 -0.586805,3.331336 0.0276,6.732491 1.499169,8.298901 1.284191,1.36696 2.418058,1.274124 3.907098,-0.319898 z m 11.297653,2.249917 c -1.426951,-0.599566 -3.229835,-2.995638 -3.553937,-4.723271 -0.436249,-2.325406 -0.01004,-6.431907 0.850448,-8.193921 1.582125,-3.23972 2.186512,-3.69811 5.020956,-3.808103 3.172147,-0.123098 4.226742,0.654092 5.309014,3.912506 1.404951,4.229909 0.225795,9.969529 -2.437809,11.866181 -1.433672,1.020865 -3.928636,1.476039 -5.188672,0.946608 z m 4.030667,-1.982317 c 0.585818,-0.585819 1.407165,-2.235819 1.825214,-3.666667 0.636648,-2.179067 0.681542,-3.063486 0.276431,-5.446131 -0.618583,-3.638168 -1.327623,-4.420382 -3.345467,-3.69072 -0.814205,0.29442 -1.784071,0.535309 -2.155253,0.535309 -0.930178,0 -1.679298,1.832039 -1.998712,4.888019 -0.353102,3.378284 0.07316,5.450059 1.46056,7.098898 1.365943,1.623326 2.513227,1.705292 3.937227,0.281292 z m 25.662099,-6.088205 0.121262,-8.106702 1.25,-0.416281 c 0.687502,-0.228954 1.371595,-0.294686 1.520209,-0.146071 0.148613,0.148615 -0.01387,3.919448 -0.361111,8.379629 -0.613303,7.877972 -0.660151,8.113513 -1.641471,8.252774 l -1.010152,0.143353 z m -0.253032,-13.60766 c -0.655604,-1.886899 1.231694,-3.661558 3.222125,-3.02982 1.037493,0.329287 1.568342,1.552412 0.944516,2.176239 -0.31572,0.315724 -0.459014,0.23134 -0.459014,-0.270311 0,-0.401129 -0.208795,-0.858368 -0.463991,-1.016087 -0.71576,-0.442364 -2.563382,0.980797 -2.742222,2.112242 l -0.159791,1.010949 z"
         id="path119" />
    </g>
  </g>
</svg>
